<svg xmlns="http://www.w3.org/2000/svg" fill-rule="evenodd" stroke-linejoin="round" stroke-miterlimit="2" clip-rule="evenodd" viewBox="0 0 32 32" id="quran"><path fill="url(#_Linear1)" d="M225,62L205,62C204.47,62 203.961,61.789 203.586,61.414C203.211,61.039 203,60.53 203,60C203,59.47 203.211,58.961 203.586,58.586C203.961,58.211 204.47,58 205,58L225,58C224.242,58.379 223.764,59.153 223.764,60C223.764,60.847 224.242,61.621 225,62ZM203,58.107L203,37.969C203,37.52 203.191,37.087 203.536,36.739C203.582,36.695 203.631,36.652 203.683,36.61C204.043,36.32 204.504,36.13 205,36.062L205,57L204.598,57C203.929,57 203.323,57.391 203.048,58L203,58.107ZM225,57L206,57L206,36L225,36L225,57ZM211.345,43.5L210.6,45.792L208.19,45.792L210.14,47.209L209.395,49.502L211.345,48.085L213.295,49.502L212.55,47.209L214.5,45.792L212.09,45.792L211.345,43.5ZM215,42.207C216.894,42.975 218.231,44.832 218.231,47C218.231,49.168 216.894,51.025 215,51.793C215.599,52.036 216.253,52.169 216.938,52.169C219.791,52.169 222.108,49.853 222.108,47C222.108,44.147 219.791,41.831 216.938,41.831C216.253,41.831 215.599,41.964 215,42.207Z" transform="translate(-198 -33)"></path><defs><linearGradient id="_Linear1" x1="0" x2="1" y1="0" y2="0" gradientTransform="matrix(24 -23.0679 23.0679 24 204 59)" gradientUnits="userSpaceOnUse"><stop offset="0" stop-color="#fb7030"></stop><stop offset="1" stop-color="#f7e200"></stop></linearGradient></defs></svg>